<svg id="Layer_1" data-name="Layer 1" xmlns="http://www.w3.org/2000/svg" viewBox="0 0 76.43 76.42"><defs><style>.cls-1{fill:#009be6;}</style></defs><path class="cls-1" d="M19.17,7.58l2.79,4a1.76,1.76,0,0,1-.37,2.68A1.65,1.65,0,0,1,19.17,14l.53-.38a1.06,1.06,0,0,0,1.55.13c.57-.4.71-1,.17-1.81L18.63,8Z" transform="translate(-1.79 -1.79)"/><path class="cls-1" d="M21.34,6.29l3.15,2,.05,0,.38-3.71.68-.34-.49,4.51,1.26,2.58-.6.3L24.51,9,20.65,6.62Z" transform="translate(-1.79 -1.79)"/><path class="cls-1" d="M27.35,3.61,29.46,3a2,2,0,0,1,2.67,1.41A2,2,0,0,1,30.63,7l-1.49.43.7,2.44-.63.18Zm3.09,2.84a1.39,1.39,0,0,0,1.07-1.86,1.39,1.39,0,0,0-1.91-1L28.15,4,29,6.87Z" transform="translate(-1.79 -1.79)"/><path class="cls-1" d="M36.21,5.54A.49.49,0,0,1,36.66,5a.5.5,0,0,1,.54.45.51.51,0,0,1-.45.54A.5.5,0,0,1,36.21,5.54Z" transform="translate(-1.79 -1.79)"/><path class="cls-1" d="M44.65,1.84l-.4,4.82a1.75,1.75,0,0,1-2,1.82,1.64,1.64,0,0,1-1.7-1.73l.64,0c0,.59.42,1,1.11,1.09s1.21-.34,1.28-1.28L44,1.79Z" transform="translate(-1.79 -1.79)"/><path class="cls-1" d="M47.15,2.23l1.14,3.55h.06L51,3.18l.74.19L48.49,6.51l-.7,2.79-.64-.16.69-2.79L46.41,2Z" transform="translate(-1.79 -1.79)"/><path class="cls-1" d="M53.48,4l2,.89a2,2,0,0,1,1.15,2.79,2,2,0,0,1-2.83,1L52.4,8.11l-1,2.33-.61-.27ZM54,8.18a1.39,1.39,0,0,0,2-.74,1.4,1.4,0,0,0-.82-2l-1.39-.61-1.2,2.73Z" transform="translate(-1.79 -1.79)"/><path class="cls-1" d="M59.05,11.19a.5.5,0,0,1,.7-.13.51.51,0,0,1,.12.69.5.5,0,1,1-.82-.56Z" transform="translate(-1.79 -1.79)"/><path class="cls-1" d="M67.91,13.79l-3.4,3.43a1.75,1.75,0,0,1-2.69.11,1.64,1.64,0,0,1-.19-2.42l.46.46a1.05,1.05,0,0,0,.14,1.54c.5.5,1.15.52,1.81-.15l3.41-3.44Z" transform="translate(-1.79 -1.79)"/><path class="cls-1" d="M69.57,15.66l-1.39,3.46,0,0,3.72-.29.45.61-4.53.33-2.31,1.7-.4-.54,2.32-1.7L69.12,15Z" transform="translate(-1.79 -1.79)"/><path class="cls-1" d="M73.29,21.1l1,2a2.09,2.09,0,1,1-3.74,1.86l-.69-1.39-2.28,1.13-.3-.59Zm-2.24,3.55a1.5,1.5,0,1,0,2.68-1.33L73.05,22l-2.68,1.33Z" transform="translate(-1.79 -1.79)"/><path class="cls-1" d="M73,30.17a.5.5,0,1,1-.34.62A.51.51,0,0,1,73,30.17Z" transform="translate(-1.79 -1.79)"/><path class="cls-1" d="M78.11,37.87l-4.82.44a1.75,1.75,0,0,1-2.14-1.64,1.65,1.65,0,0,1,1.41-2l.06.65a1.06,1.06,0,0,0-.88,1.27c.07.7.55,1.14,1.49,1l4.82-.45Z" transform="translate(-1.79 -1.79)"/><path class="cls-1" d="M78.16,40.34l-3.28,1.77v0l3,2.16,0,.76-3.68-2.65-2.87-.18.05-.67,2.86.18,4-2.17Z" transform="translate(-1.79 -1.79)"/><path class="cls-1" d="M77.54,46.91,77,49.05a2.09,2.09,0,1,1-4.07-1l.36-1.51L70.85,46l.15-.64Zm-4,1.28a1.5,1.5,0,1,0,2.91.69l.35-1.47-2.91-.7Z" transform="translate(-1.79 -1.79)"/><path class="cls-1" d="M71.48,53.67a.49.49,0,1,1-.41.9.5.5,0,0,1-.24-.65A.48.48,0,0,1,71.48,53.67Z" transform="translate(-1.79 -1.79)"/><path class="cls-1" d="M70.52,62.84l-4-2.74a1.75,1.75,0,0,1-.59-2.63,1.65,1.65,0,0,1,2.35-.62l-.37.54a1.05,1.05,0,0,0-1.49.42c-.4.58-.31,1.21.47,1.75l4,2.73Z" transform="translate(-1.79 -1.79)"/><path class="cls-1" d="M68.93,64.84l-3.66-.77,0,0,.93,3.62-.52.55-1.11-4.41-2.08-2,.46-.48,2.08,2,4.45.9Z" transform="translate(-1.79 -1.79)"/><path class="cls-1" d="M64.26,69.42l-1.77,1.3A2.08,2.08,0,1,1,60,67.38l1.24-.92-1.51-2,.53-.4Zm-3.88-1.58a1.49,1.49,0,1,0,1.78,2.39l1.22-.9-1.78-2.4Z" transform="translate(-1.79 -1.79)"/><path class="cls-1" d="M55.27,70.74a.5.5,0,0,1-.23.67.49.49,0,0,1-.66-.24.48.48,0,0,1,.23-.65A.49.49,0,0,1,55.27,70.74Z" transform="translate(-1.79 -1.79)"/><path class="cls-1" d="M48.65,77.16l-1.3-4.65a1.75,1.75,0,0,1,1.24-2.4,1.63,1.63,0,0,1,2.19,1l-.62.18a1,1,0,0,0-1.41-.64c-.68.19-1,.74-.77,1.65L49.29,77Z" transform="translate(-1.79 -1.79)"/><path class="cls-1" d="M46.15,77.68l-2.31-2.93h-.05l-1.6,3.38-.76.08,2-4.09-.32-2.85.66-.08.32,2.86,2.84,3.54Z" transform="translate(-1.79 -1.79)"/><path class="cls-1" d="M39.61,78.19l-2.19-.13a2.09,2.09,0,1,1,.24-4.16L39.2,74l.15-2.54.66,0Zm-2-3.7a1.49,1.49,0,1,0-.17,3l1.51.09.18-3Z" transform="translate(-1.79 -1.79)"/><path class="cls-1" d="M31.91,73.46a.5.5,0,1,1-.37-.6A.51.51,0,0,1,31.91,73.46Z" transform="translate(-1.79 -1.79)"/><path class="cls-1" d="M22.67,74.12l2-4.4a1.75,1.75,0,0,1,2.49-1,1.65,1.65,0,0,1,1,2.2l-.59-.27a1.06,1.06,0,0,0-.68-1.39c-.64-.29-1.25-.09-1.64.78l-2,4.4Z" transform="translate(-1.79 -1.79)"/><path class="cls-1" d="M20.46,73l.1-3.73,0,0-3.39,1.57-.64-.42,4.14-1.88,1.58-2.4.56.36-1.58,2.41-.09,4.54Z" transform="translate(-1.79 -1.79)"/><path class="cls-1" d="M15.11,69.17l-1.6-1.51a2,2,0,0,1-.17-3,2,2,0,0,1,3,0l1.13,1.06,1.74-1.86.48.45ZM16,65.06a1.39,1.39,0,0,0-2.15,0,1.4,1.4,0,0,0,.11,2.16l1.11,1,2-2.18Z" transform="translate(-1.79 -1.79)"/><path class="cls-1" d="M12.22,60.56a.51.51,0,0,1-.7-.11.5.5,0,0,1,.8-.59A.5.5,0,0,1,12.22,60.56Z" transform="translate(-1.79 -1.79)"/><path class="cls-1" d="M4.72,55.18l4.34-2.12a1.75,1.75,0,0,1,2.58.79A1.65,1.65,0,0,1,11,56.19l-.29-.58a1.05,1.05,0,0,0,.37-1.5c-.3-.64-.9-.87-1.75-.46L5,55.77Z" transform="translate(-1.79 -1.79)"/><path class="cls-1" d="M3.75,52.83,6.22,50V50L2.6,49l-.22-.73,4.38,1.21,2.75-.84.19.64L7,50.12,4,53.55Z" transform="translate(-1.79 -1.79)"/><path class="cls-1" d="M2.07,46.47l-.26-2.19a2,2,0,0,1,1.82-2.41A2,2,0,0,1,6,43.78l.18,1.54L8.67,45l.07.65Zm3.3-2.59A1.4,1.4,0,0,0,3.7,42.51a1.41,1.41,0,0,0-1.3,1.73l.18,1.5,3-.35Z" transform="translate(-1.79 -1.79)"/><path class="cls-1" d="M5.38,38a.5.5,0,1,1,.53-.47A.5.5,0,0,1,5.38,38Z" transform="translate(-1.79 -1.79)"/><path class="cls-1" d="M3.07,29.09l4.69,1.16a1.75,1.75,0,0,1,1.47,2.26,1.65,1.65,0,0,1-2,1.4l.16-.63a1.07,1.07,0,0,0,1.25-.92c.17-.68-.14-1.24-1.06-1.47L2.91,29.73Z" transform="translate(-1.79 -1.79)"/><path class="cls-1" d="M3.82,26.69l3.7-.57,0-.05L5.39,23l.29-.7,2.59,3.73,2.65,1.13-.26.61L8,26.67l-4.48.72Z" transform="translate(-1.79 -1.79)"/><path class="cls-1" d="M6.62,20.72l1.2-1.85a2,2,0,0,1,2.94-.68,2,2,0,0,1,.56,3l-.84,1.3,2.13,1.38-.36.56Zm4.19.13a1.4,1.4,0,0,0-.41-2.12,1.39,1.39,0,0,0-2.1.49l-.83,1.27L10,22.12Z" transform="translate(-1.79 -1.79)"/><path class="cls-1" d="M14.55,16.38a.5.5,0,0,1,.69-.72.5.5,0,1,1-.69.72Z" transform="translate(-1.79 -1.79)"/></svg>