<svg id="그룹_26252" data-name="그룹 26252" xmlns="http://www.w3.org/2000/svg" xmlns:xlink="http://www.w3.org/1999/xlink" width="425.819" height="458.993" viewBox="0 0 425.819 458.993">
  <defs>
    <clipPath id="clip-path">
      <rect id="사각형_26100" data-name="사각형 26100" width="425.819" height="458.993" fill="none"/>
    </clipPath>
  </defs>
  <g id="그룹_26251" data-name="그룹 26251" clip-path="url(#clip-path)">
    <path id="패스_6125" data-name="패스 6125" d="M.019,458.993h425.8V0H0Zm131.225-53.239h-.264c-1.268,11.991-7.93,23.081-19.025,31.522-11.894,9.049-27.6,14.032-44.213,14.032-16.8,0-32.636-5.066-44.58-14.265-12.217-9.41-18.946-22.012-18.946-35.486V266.68H40.675V401.558c0,11.093,12.142,20.117,27.066,20.117s27.043-9.025,27.043-20.117V40.673H45.333V3.873H131.24ZM266.444,261.3a64.648,64.648,0,0,1-31.529,19.159V452.838H198.533V280.46A64.677,64.677,0,0,1,166.984,261.3a52.829,52.829,0,0,1-13.759-35.434L153.1,4.191h36.409l.126,221.674c0,13.119,12.164,23.791,27.116,23.791,14.925,0,27.067-10.672,27.067-23.789l-.1-221.676h36.36l.125,221.674A52.847,52.847,0,0,1,266.447,261.3m155.448-43.553v.061c-.618,17.47-4.217,35.447-26.173,48.574-16.589,9.932-46.48,12.113-59.419,12.587V452.838H299.869V3.5H336.3V21.288C350.864,9.479,365.734,3.5,380.592,3.5c15.16,0,26.962,6.631,34.13,19.177,5.645,9.879,6.892,20.674,7.165,24.857l.008.226Z" fill="#fff"/>
    <path id="패스_6126" data-name="패스 6126" d="M385.584,214.383V52.683c0-6.346-1.134-14.38-6.536-16.622-6.054-2.512-16.471,2.353-26.539,12.4-15.592,15.5-16.191,33.079-16.206,33.7V244.048c6.621-.529,18.174-1.816,32.1-4.291,7.169-1.271,12.221-5.762,15.017-13.35a37.137,37.137,0,0,0,2.159-11.953Z" fill="#fff"/>
  </g>
</svg>
