<svg id="레이어_1" data-name="레이어 1" xmlns="http://www.w3.org/2000/svg" viewBox="0 0 158.3 38.97"><defs><style>.cls-1{fill:#fff;}</style></defs><title>visual_slogan_1</title><path class="cls-1" d="M0,38.8V0H5.4V34.27h9.11v4.5Z" transform="translate(0 0)"/><path class="cls-1" d="M17.4,38.8V0H32.1V4.5H22.8V16.7h8.8v4.5H22.8V34.27h9.3v4.5Z" transform="translate(0 0)"/><path class="cls-1" d="M34.2,38.8,42.8,0h6.3L57,38.8H51.6l-1.8-9.9H41.4l-1.8,9.9ZM45.6,5.7,42.2,24.4h6.9L45.7,5.7Z" transform="translate(0 0)"/><path class="cls-1" d="M60,38.8V0h8.7c4.2,0,6.9,1,8,2.9q1.5,2.37,1.5,11.37v11.6c0,5.1-.6,8.5-1.9,10.3S72.1,39,67.9,39H60ZM65.4,4.5V34.27H68c1.9,0,3.2-.6,3.9-1.9q.9-1.65.9-6.9V12.2c0-3-.3-5.1-.9-6-.7-1.1-2.1-1.7-4.3-1.7Z" transform="translate(0 0)"/><path class="cls-1" d="M81.7,38.8V0H96.4V4.5H87.1V16.7h8.8v4.5H87.1V34.27h9.3v4.5Z" transform="translate(0 0)"/><path class="cls-1" d="M99.2,38.8V0h8.4c3.8,0,6.3.7,7.3,2.1s1.4,4.1,1.4,8.5a14,14,0,0,1-.9,5.9,7,7,0,0,1-4.2,3v.1c1.8.2,3.1.7,3.8,1.7a7.23,7.23,0,0,1,1.1,4.2v8.4c0,2.2.1,3.9.2,5h-5a8.21,8.21,0,0,1-.6-3.5V26.6c0-1.9-.3-3.1-.8-3.7s-1.7-.9-3.4-.9h-1.8V38.9H99.2Zm5.4-34.3V17.4H106c2.1,0,3.5-.4,4-1.1s.8-2.6.8-5.5-.2-4.6-.6-5.3-1.4-1-3.1-1Z" transform="translate(0 0)"/><path class="cls-1" d="M130.2,38.8V0h5.4V38.8Z" transform="translate(0 0)"/><path class="cls-1" d="M139.3,38.8V0h7.5l6.4,32.3V0h5.1V38.8h-7.79l-6.4-33.1V38.8Z" transform="translate(0 0)"/></svg>