<svg id="레이어_1" data-name="레이어 1" xmlns="http://www.w3.org/2000/svg" viewBox="0 0 261.1 38.93"><defs><style>.cls-1{fill:#fff;}</style></defs><title>visual_slogan_2</title><path class="cls-1" d="M0,40.3V1.5H14.7V6H5.4v12.2h8.8v4.5H5.4v13.1h9.3v4.5Z" transform="translate(0 -1.47)"/><path class="cls-1" d="M17.51,40.3V1.5H25l6.4,32.3V1.5h5.1V40.3h-7.8L22.31,7.2V40.3Z" transform="translate(0 -1.47)"/><path class="cls-1" d="M39.4,6V1.47H57.8V6H51.3v34.3H45.9V6Z" transform="translate(0 -1.47)"/><path class="cls-1" d="M60.6,40.3V1.5H75.3V6H66v12.2h8.8v4.5H66v13.1h9.3v4.5Z" transform="translate(0 -1.47)"/><path class="cls-1" d="M78,40.3V1.5h8.4c3.8,0,6.3.7,7.3,2.1s1.4,4.1,1.4,8.5a14,14,0,0,1-.9,5.9A7.05,7.05,0,0,1,90,21v.1c1.8.2,3.1.7,3.8,1.7A7.23,7.23,0,0,1,94.9,27v8.4c0,2.2.1,3.9.2,5h-5a8.24,8.24,0,0,1-.6-3.5V28.1c0-1.9-.3-3.1-.8-3.7s-1.7-.9-3.4-.9H83.51V40.4H78ZM83.51,6v12.9h1.4c2.1,0,3.5-.4,4-1.1s.8-2.6.8-5.5-.2-4.6-.6-5.3S87.71,6,86,6Z" transform="translate(0 -1.47)"/><path class="cls-1" d="M97.7,6V1.47h18.4V6h-6.5v34.3h-5.4V6Z" transform="translate(0 -1.47)"/><path class="cls-1" d="M114.9,40.3l8.6-38.8h6.3l8,38.8h-5.4l-1.8-9.9h-8.4l-1.8,9.9ZM126.3,7.2l-3.4,18.7h6.9L126.4,7.2Z" transform="translate(0 -1.47)"/><path class="cls-1" d="M140.6,40.3V1.5H146V40.3Z" transform="translate(0 -1.47)"/><path class="cls-1" d="M149.7,40.3V1.5h7.5l6.4,32.3V1.5h5.1V40.3h-7.8L154.51,7.2V40.3Z" transform="translate(0 -1.47)"/><path class="cls-1" d="M172.6,40.3V1.5h8.6l5,29.6h.1l5-29.6h8.4V40.3h-5.1V5.3l-5.6,35h-5.49l-6.1-35v35Z" transform="translate(0 -1.47)"/><path class="cls-1" d="M203.4,40.3V1.5h14.7V6h-9.3v12.2h8.8v4.5h-8.8v13.1h9.3v4.5Z" transform="translate(0 -1.47)"/><path class="cls-1" d="M220.9,40.3V1.5h7.5l6.4,32.3V1.5h5.1V40.3h-7.8L225.7,7.2V40.3Z" transform="translate(0 -1.47)"/><path class="cls-1" d="M242.7,6V1.47h18.4V6h-6.5v34.3h-5.4V6Z" transform="translate(0 -1.47)"/></svg>